# xmcd
#
# Track frame offsets:
# 150
# 15165
# 32533
# 45720
# 61770
#
# Disc length: 1025 seconds
#
#
# Revision: 0
# Processed by: cddbd v1.5.1PL0 Copyright (c) Steve Scherf et al.
# Submitted via: FreeRIP 2.80 
#
DISCID=2c03ff05
DTITLE=Blo.Tooth - Woman in You
DYEAR=1998
DGENRE=Easy Listening
TTITLE0=Woman In You
TTITLE1=Happy
TTITLE2=Lonely in Paris
TTITLE3=Playing God
TTITLE4=05 - Magic Bat
EXTD=
EXTT0=
EXTT1=
EXTT2=
EXTT3=
EXTT4=
PLAYORDER=
